<svg width="12" height="15" viewBox="0 0 12 15" fill="none" xmlns="http://www.w3.org/2000/svg">
<path d="M9.825 5.5H8.5V1.33333C8.5 0.875 8.125 0.5 7.66667 0.5H4.33333C3.875 0.5 3.5 0.875 3.5 1.33333V5.5H2.175C1.43333 5.5 1.05833 6.4 1.58333 6.925L5.40833 10.75C5.73333 11.075 6.25833 11.075 6.58333 10.75L10.4083 6.925C10.9333 6.4 10.5667 5.5 9.825 5.5ZM0.166664 13.8333C0.166664 14.2917 0.541664 14.6667 0.999998 14.6667H11C11.4583 14.6667 11.8333 14.2917 11.8333 13.8333C11.8333 13.375 11.4583 13 11 13H0.999998C0.541664 13 0.166664 13.375 0.166664 13.8333Z" fill="#8F969E"/>
</svg>
