<svg width="14" height="14" viewBox="0 0 14 14" fill="none" xmlns="http://www.w3.org/2000/svg">
<path d="M13.3 0.709727C12.91 0.319727 12.28 0.319727 11.89 0.709727L7 5.58973L2.11 0.699727C1.72 0.309727 1.09 0.309727 0.700001 0.699727C0.310001 1.08973 0.310001 1.71973 0.700001 2.10973L5.59 6.99973L0.700001 11.8897C0.310001 12.2797 0.310001 12.9097 0.700001 13.2997C1.09 13.6897 1.72 13.6897 2.11 13.2997L7 8.40973L11.89 13.2997C12.28 13.6897 12.91 13.6897 13.3 13.2997C13.69 12.9097 13.69 12.2797 13.3 11.8897L8.41 6.99973L13.3 2.10973C13.68 1.72973 13.68 1.08973 13.3 0.709727Z" fill="#1F2E3D"/>
</svg>
